# xmcd
#
# Track frame offsets: 
#        150
#        15323
#        31131
#        49198
#
# Disc length: 857 seconds
#
# Revision: 0
# Processed by: cddbd v1.5.1PL0 Copyright (c) Steve Scherf et al.
# Submitted via: ExactAudioCopy v0.95a5
#
DISCID=22035704
DTITLE=Tonjip - Coolite
DYEAR=2004
DGENRE=Toupee
TTITLE0=Coolite
TTITLE1=Moth and Rust
TTITLE2=Only Time
TTITLE3=Life In Transit
EXTD=
EXTT0=
EXTT1=
EXTT2=
EXTT3=
PLAYORDER=
